<svg width="44" height="29" viewBox="0 0 44 29" fill="none" xmlns="http://www.w3.org/2000/svg">
<g clip-path="url(#clip0_159_708)">
<path d="M25.2255 0.413197C23.1248 0.417441 21.0631 0.980745 19.252 2.04527C17.441 3.10978 15.9459 4.63716 14.9204 6.47053C14.0376 6.04066 13.0689 5.81661 12.087 5.81523C10.5481 5.81927 9.06071 6.36983 7.89003 7.3687C6.71935 8.36757 5.94155 9.74981 5.69535 11.2689C4.06979 11.9495 2.68165 13.0954 1.70534 14.5626C0.729034 16.0297 0.208104 17.7527 0.208008 19.515C0.210301 21.8854 1.15383 24.1578 2.83115 25.8327C4.50848 27.5076 6.78229 28.4478 9.15266 28.4467C9.52777 28.4433 9.9023 28.4163 10.274 28.3658H35.1274C35.2579 28.3753 35.3887 28.3816 35.5195 28.3848C35.6441 28.3813 35.7687 28.375 35.8931 28.3658H36.4883V28.3216C38.5118 28.0823 40.3777 27.1053 41.7322 25.5759C43.0866 24.0465 43.8356 22.0709 43.837 20.0236V20.0076C43.8323 18.0633 43.1533 16.1814 41.9169 14.6857C40.6805 13.19 38.964 12.174 37.0626 11.8125C36.9497 8.74948 35.6528 5.8497 33.445 3.72354C31.2372 1.59737 28.2907 0.410664 25.2255 0.413197Z" fill="url(#paint0_linear_159_708)"/>
</g>
<defs>
<linearGradient id="paint0_linear_159_708" x1="43.9695" y1="20.0463" x2="0.191893" y2="19.4425" gradientUnits="userSpaceOnUse">
<stop stop-color="#3E82F4"/>
<stop offset="1" stop-color="#93DCF7"/>
</linearGradient>
<clipPath id="clip0_159_708">
<rect width="44" height="28.6" fill="white"/>
</clipPath>
</defs>
</svg>
