<svg width="44" height="29" viewBox="0 0 44 29" fill="none" xmlns="http://www.w3.org/2000/svg">
<g clip-path="url(#clip0_159_696)">
<path d="M26.5827 18.925L35.6648 10.2845C33.7783 2.96638 26.2856 -1.44469 18.9295 0.432093C15.6168 1.27725 12.7396 3.3202 10.8594 6.16211C11 6.15858 26.5827 18.925 26.5827 18.925Z" fill="#0364B8"/>
<path d="M16.7781 7.78876L16.7777 7.79025C15.0423 6.72097 13.0409 6.15577 10.9995 6.15853C10.9524 6.15853 10.906 6.16151 10.859 6.16206C4.78702 6.2369 -0.0743212 11.1944 0.000860394 17.2349C0.0281137 19.4261 0.716324 21.5586 1.97626 23.356L15.5827 21.6607L26.0146 13.2926L16.7781 7.78876Z" fill="#0078D4"/>
<path d="M35.6645 10.2845C35.4648 10.2712 35.2642 10.2621 35.0612 10.2621C33.8428 10.2609 32.6371 10.5085 31.5187 10.9895L31.5184 10.9885L26.0146 13.2927L32.0822 20.7488L42.9294 23.372C45.2703 19.0488 43.645 13.6564 39.2993 11.3276C38.1765 10.7259 36.9371 10.3703 35.6645 10.2845V10.2845H35.6645Z" fill="#1490DF"/>
<path d="M1.97656 23.356C4.03103 26.2946 7.40185 28.0458 10.9999 28.044H35.0614C38.3483 28.0449 41.3703 26.2505 42.9297 23.3721L26.0149 13.2926L1.97656 23.356Z" fill="#28A8EA"/>
</g>
<defs>
<clipPath id="clip0_159_696">
<rect width="44" height="28.044" fill="white"/>
</clipPath>
</defs>
</svg>
